HIERARCHY
ROOT root
{
	OFFSET	0	13.1	24.9
	CHANNELS 6  Xposition Yposition Zposition Xrotation Yrotation Zrotation
	JOINT spine_1
	{
		OFFSET	0	9.99999	0
		CHANNELS 3  Xrotation Yrotation Zrotation
		JOINT spine_2
		{
			OFFSET	0	112	-10
			CHANNELS 3  Xrotation Yrotation Zrotation
			JOINT spine_3
			{
				OFFSET	0	206.5	19.3
				CHANNELS 3  Xrotation Yrotation Zrotation
				JOINT spine_4
				{
					OFFSET	0	110.4	14.6
					CHANNELS 3  Xrotation Yrotation Zrotation
					JOINT neck_1
					{
						OFFSET	0	71.8	-50.3
						CHANNELS 3  Xrotation Yrotation Zrotation
						JOINT neck_2
						{
							OFFSET	0	86.2	-25.8
							CHANNELS 3  Xrotation Yrotation Zrotation
							JOINT head_ee
							{
								OFFSET	0	179.8	-8.7
								CHANNELS 3  Xrotation Yrotation Zrotation
								End Site
								{
									OFFSET	1	0	0
								}
							}
						}
					}
					JOINT left_clavicle
					{
						OFFSET	-43.2	22.4	-70.8
						CHANNELS 3  Xrotation Yrotation Zrotation
						JOINT left_shoulder
						{
							OFFSET	-93.9	-5.79999	48.7
							CHANNELS 3  Xrotation Yrotation Zrotation
							JOINT left_elbow
							{
								OFFSET	-291.4	-30.8	15.2
								CHANNELS 3  Xrotation Yrotation Zrotation
								JOINT left_lowarm_twist
								{
									OFFSET	-110.7	-3.89999	13.6
									CHANNELS 3  Xrotation Yrotation Zrotation
									JOINT left_hand
									{
										OFFSET	-110.7	-3.89999	13.6
										CHANNELS 3  Xrotation Yrotation Zrotation
										JOINT left_ee
										{
											OFFSET	-80.8	-5.10001	12.1
											CHANNELS 3  Xrotation Yrotation Zrotation
											End Site
											{
												OFFSET	1	0	0
											}
										}
									}
								}
							}
						}
					}
					JOINT right_clavicle
					{
						OFFSET	43.2	22.4	-70.8
						CHANNELS 3  Xrotation Yrotation Zrotation
						JOINT right_shoulder
						{
							OFFSET	93.9	-5.79999	48.7
							CHANNELS 3  Xrotation Yrotation Zrotation
							JOINT right_elbow
							{
								OFFSET	291.4	-30.8	15.2
								CHANNELS 3  Xrotation Yrotation Zrotation
								JOINT right_lowarm_twist
								{
									OFFSET	110.7	-3.89999	13.6
									CHANNELS 3  Xrotation Yrotation Zrotation
									JOINT right_hand
									{
										OFFSET	110.7	-3.89999	13.6
										CHANNELS 3  Xrotation Yrotation Zrotation
										JOINT right_ee
										{
											OFFSET	80.8	-5.10001	12.1
											CHANNELS 3  Xrotation Yrotation Zrotation
											End Site
											{
												OFFSET	1	0	0
											}
										}
									}
								}
							}
						}
					}
				}
			}
		}
	}
	JOINT left_hip
	{
		OFFSET	-82.8	-127.5	0.300001
		CHANNELS 3  Xrotation Yrotation Zrotation
		JOINT left_knee
		{
			OFFSET	-28.2	-396.7	2.2
			CHANNELS 3  Xrotation Yrotation Zrotation
			JOINT left_ankle
			{
				OFFSET	-11.7	-411.3	35.4
				CHANNELS 3  Xrotation Yrotation Zrotation
				JOINT left_toes
				{
					OFFSET	0	-60	-88.6
					CHANNELS 3  Xrotation Yrotation Zrotation
					JOINT left_foot_ee
					{
						OFFSET	-22.5	-16.5	-42.2
						CHANNELS 3  Xrotation Yrotation Zrotation
						End Site
						{
							OFFSET	1	0	0
						}
					}
				}
			}
		}
	}
	JOINT right_hip
	{
		OFFSET	82.8	-127.5	0.300001
		CHANNELS 3  Xrotation Yrotation Zrotation
		JOINT right_knee
		{
			OFFSET	28.2	-396.7	2.2
			CHANNELS 3  Xrotation Yrotation Zrotation
			JOINT right_ankle
			{
				OFFSET	11.7	-411.3	35.4
				CHANNELS 3  Xrotation Yrotation Zrotation
				JOINT right_toes
				{
					OFFSET	0	-60	-88.6
					CHANNELS 3  Xrotation Yrotation Zrotation
					JOINT right_foot_ee
					{
						OFFSET	22.5	-16.5	-42.2
						CHANNELS 3  Xrotation Yrotation Zrotation
						End Site
						{
							OFFSET	1	0	0
						}
					}
				}
			}
		}
	}
}
MOTION
Frames: 13
Frame Time: 0.02
2833.36821607 707.248 -1596.41306126 0.191002822791 61.269099068 0.805672725164 0.190362 0.356952 1.10288 0.190994 0.286054 1.12336 0.197013 0.0475704 1.15823 0.195215 0.229882 1.13618 -10.5743 20.5706 0.300212 -11.2911 38.6864 6.04679 -0.0 0.0 -0.0 1.21753 4.90462 2.81558 -1.42288 -17.7343 52.4314 1.27223 -32.2187 0.367448 9.67278 0.239066 -1.21102 -1.6987 8.19266 -7.60456 -0.0 0.0 -0.0 9.06657 18.1856 -17.4498 -23.786 26.2505 -60.4825 1.29844 32.748 -0.381526 -46.3797 3.65375 -4.48029 -4.42462 -20.9442 17.9735 0.0 0.0 0.0 -5.4954 -13.5678 3.09455 6.35445 -0.313321 -0.923969 5.11888 28.9464 -0.79035 5.3768 -0.0 -0.0 -0.0 0.0 -0.0 28.8378 28.2613 -12.3713 -54.0525 1.59312 -7.83847 -8.17428 -12.6487 -1.21842 20.774 -0.0 -0.0 0.0 0.0 0.0 
2820.89720309 703.569 -1573.56877185 2.22902145531 65.5637810452 -1.62962999198 0.108263 0.225479 1.09447 0.108916 0.155382 1.1066 0.112279 -0.0784856 1.1147 0.110558 0.0985338 1.1131 -9.88573 20.4415 0.568669 -10.4474 38.1664 5.97765 -0.0 0.0 -0.0 0.990717 8.85252 2.78238 0.119002 -14.7058 51.5482 1.86104 -42.6689 0.726934 8.03578 0.213044 -1.00354 -1.89849 6.15801 -9.8827 -0.0 0.0 -0.0 9.15675 17.9347 -17.6655 -24.2889 25.8149 -61.0643 1.10451 28.6841 -0.282409 -46.1997 3.6333 -4.46953 -4.44952 -21.1676 17.9804 0.0 0.0 0.0 -6.67189 -10.0238 4.98708 7.60652 -0.387069 -1.10171 9.20562 29.1311 -1.40708 5.35371 -0.0 -0.0 -0.0 0.0 -0.0 29.2472 29.7521 -12.5849 -49.0869 1.14358 -7.2199 -10.3453 -13.1024 -1.54761 19.7284 -0.0 -0.0 0.0 0.0 0.0 
2811.78697097 704.799 -1546.42306951 3.43514323047 69.8210371117 -3.73850879992 0.25432 0.12144 1.3255 0.255297 0.0368569 1.33054 0.25655 -0.23779 1.30964 0.254157 -0.0279921 1.33075 -9.4389 20.3468 0.774896 -9.90382 37.7811 5.96758 -0.0 0.0 -0.0 1.00088 11.1461 3.01594 1.30503 -12.8032 51.0943 2.40584 -49.9932 1.12182 6.8911 0.19133 -0.858931 -2.0349 4.69973 -11.4903 -0.0 0.0 -0.0 9.22223 17.7681 -17.821 -24.6532 25.5109 -61.4738 0.97759 25.839 -0.224253 -46.0737 3.61901 -4.46196 -4.46686 -21.3276 17.9819 0.0 0.0 0.0 -8.47254 -7.53704 6.72488 7.7801 -0.3976 -1.12622 12.0694 29.2668 -1.83025 5.34167 -0.0 -0.0 -0.0 0.0 -0.0 30.6748 30.6066 -13.1554 -44.7594 0.796978 -6.65131 -11.8204 -13.4621 -1.77233 18.9977 -0.0 -0.0 0.0 0.0 0.0 
2802.29023747 706.382 -1527.64849346 2.90677861995 70.840722557 -3.7705504175 0.353361 0.145931 1.46767 0.354558 0.0522539 1.47398 0.356366 -0.249721 1.45362 0.353417 -0.0170412 1.47481 -9.15655 20.3013 0.957835 -9.56237 37.5269 6.01919 -0.0 0.0 -0.0 0.887282 12.704 2.97136 2.2226 -11.4687 50.4145 2.89634 -55.1135 1.51162 6.16527 0.176065 -0.767469 -2.12987 3.68253 -12.6194 -0.0 0.0 -0.0 9.27833 17.6484 -17.9527 -24.9236 25.2983 -61.7725 0.89132 23.8228 -0.188019 -45.988 3.6093 -4.4568 -4.48065 -21.4871 17.961 0.0 0.0 0.0 -9.85441 -5.76868 7.55953 7.88431 -0.403958 -1.14093 14.0731 29.3591 -2.12132 5.32938 -0.0 -0.0 -0.0 0.0 -0.0 31.4055 31.4572 -12.508 -41.5794 0.570292 -6.21795 -12.8557 -13.7149 -1.93047 18.4948 -0.0 -0.0 0.0 0.0 0.0 
2789.17421009 703.415 -1519.10667285 0.307180576942 69.0264991229 -0.928068239131 0.387552 0.245175 1.49982 0.388791 0.149252 1.51238 0.393268 -0.1616 1.51111 0.39009 0.0790514 1.51767 -8.3576 20.9052 1.47327 -8.63186 38.1782 6.37094 -0.0 0.0 -0.0 0.843338 12.4643 2.87556 3.74194 -9.59019 49.4422 3.10318 -56.943 1.68318 6.73793 0.188205 -0.839613 -2.1954 2.96608 -13.4096 -0.0 0.0 -0.0 9.4961 18.3782 -18.39 -25.0731 25.194 -62.0762 0.834817 22.4671 -0.165809 -45.399 3.54277 -4.4209 -4.63832 -23.8304 17.3368 0.0 0.0 0.0 -9.93571 -4.47278 8.1527 7.2993 -0.368613 -1.05824 15.4361 28.7227 -2.30566 4.90918 -0.0 -0.0 -0.0 0.0 -0.0 28.39 32.3285 -11.3473 -27.1998 -0.141095 -4.13268 -13.1616 -11.3952 -1.97166 16.6382 -0.0 -0.0 0.0 0.0 0.0 
2790.39787706 703.415 -1515.98402311 0.313791712182 69.4885222803 -0.935137541166 0.387552 0.245175 1.49982 0.388791 0.149252 1.51238 0.393268 -0.1616 1.51111 0.39009 0.0790514 1.51767 -8.3576 20.9052 1.47327 -8.63186 38.1782 6.37094 -0.0 0.0 -0.0 0.843338 12.4643 2.87556 3.74194 -9.59019 49.4422 3.10318 -56.943 1.68318 6.73793 0.188205 -0.839613 -2.1954 2.96608 -13.4096 -0.0 0.0 -0.0 9.4961 18.3782 -18.39 -25.0731 25.194 -62.0762 0.834817 22.4671 -0.165809 -45.399 3.54277 -4.4209 -4.63832 -23.8304 17.3368 0.0 0.0 0.0 -9.93571 -4.47278 8.1527 7.2993 -0.368613 -1.05824 15.4361 28.7227 -2.30566 4.90918 -0.0 -0.0 -0.0 0.0 -0.0 28.39 32.3285 -11.3473 -27.1998 -0.141095 -4.13268 -13.1616 -11.3952 -1.97166 16.6382 -0.0 -0.0 0.0 0.0 0.0 
2779.50554483 710.073 -1508.66631454 -0.939349751788 67.9117829667 -0.346138344101 0.376878 0.343209 1.80135 0.378655 0.227908 1.81953 0.38671 -0.147283 1.82782 0.382077 0.143187 1.82815 -7.79602 21.3358 1.82947 -7.97127 38.6364 6.60691 -0.0 0.0 -0.0 0.845321 12.2921 2.86239 4.72989 -8.27165 48.812 3.25093 -58.1484 1.80786 7.12848 0.19607 -0.888883 -2.21275 2.53511 -13.7358 -0.0 0.0 -0.0 9.68874 18.7835 -18.7922 -25.091 25.0194 -62.443 0.791807 21.4169 -0.149737 -44.8438 3.4804 -4.38644 -4.73918 -25.5372 16.7544 0.0 0.0 0.0 -10.0846 -3.56575 8.77263 5.22583 -0.250197 -0.762434 16.2076 28.2875 -2.40715 4.5442 -0.0 -0.0 -0.0 0.0 -0.0 26.3122 32.8868 -10.6104 -16.2401 -0.321459 -2.46315 -13.366 -9.68081 -2.0008 15.3316 -0.0 -0.0 0.0 0.0 0.0 
2745.02984497 707.757 -1510.24150565 0.542135043062 66.4914769996 -1.15879198132 0.099422 0.223109 1.92351 0.101475 0.100282 1.93381 0.105822 -0.304961 1.91225 0.100719 0.000811298 1.9364 -7.43201 19.981 -2.18739 -7.50119 38.8179 2.17671 -0.0 0.0 -0.0 0.745803 11.9037 2.65814 7.16773 -7.01368 46.9 3.5105 -60.0844 2.03066 7.41016 0.201534 -0.92445 -2.23996 2.47668 -13.95 -0.0 0.0 -0.0 9.85337 18.6949 -19.1653 -25.2554 24.5055 -63.2786 0.713355 19.4622 -0.122336 -43.8101 3.36518 -4.32068 -4.79468 -27.5236 15.6774 0.0 0.0 0.0 -10.382 -2.33456 9.92467 1.38779 -0.0596307 -0.204606 17.0132 27.3048 -2.50332 3.68528 -0.0 -0.0 -0.0 0.0 -0.0 25.9948 32.1781 -13.3602 -2.43141 -0.0924472 -0.361662 -19.6231 -7.62466 -2.95015 14.2448 -0.0 -0.0 0.0 0.0 0.0 
2731.96130883 705.017 -1507.41725797 2.7955346613 65.8629304502 -3.35381538928 -0.0236886 0.333274 2.04837 -0.021377 0.202284 2.06542 -0.0128222 -0.236855 2.06174 -0.0187424 0.0916587 2.07327 -7.30204 19.587 -3.14589 -7.31812 38.7316 1.07279 -0.0 0.0 -0.0 0.721714 11.8386 2.61127 7.93554 -6.66944 46.3134 3.61931 -60.8336 2.12533 7.37303 0.200824 -0.91976 -2.25157 2.61245 -13.9638 -0.0 0.0 -0.0 9.96923 19.4765 -19.3715 -25.1533 24.5245 -63.1434 0.675427 18.4996 -0.109999 -43.3944 3.31918 -4.29365 -4.78572 -27.9228 15.3433 0.0 0.0 0.0 -11.2068 -1.96363 9.39223 -0.112841 0.00463016 0.0166975 16.9802 27.2528 -2.49795 3.28763 -0.0 -0.0 -0.0 0.0 -0.0 26.2986 32.0783 -12.7055 1.6372 0.0708731 0.241224 -21.6813 -7.00546 -3.2622 13.7848 -0.0 -0.0 0.0 0.0 0.0 
2717.75204261 699.559 -1509.70689621 4.57349155482 65.2802739981 -5.43220899785 -0.100513 0.330781 2.10833 -0.098061 0.195983 2.12509 -0.0894143 -0.258418 2.11841 -0.0956686 0.0793105 2.13263 -7.23825 19.3238 -3.7453 -7.22103 38.6508 0.383423 -0.0 0.0 -0.0 0.733384 11.3971 2.58716 8.44164 -6.8252 45.9748 3.70783 -61.4182 2.20284 7.34681 0.200321 -0.91645 -2.24772 2.70603 -13.8922 -0.0 0.0 -0.0 10.0865 20.0207 -19.5953 -25.0321 24.5509 -63.0373 0.647753 17.7904 -0.101381 -43.1012 3.28685 -4.27439 -4.7766 -28.2128 15.0859 0.0 0.0 0.0 -12.5463 -1.80818 10.3571 -1.7303 0.0673674 0.256985 16.9047 27.1456 -2.48588 2.99797 -0.0 -0.0 -0.0 0.0 -0.0 26.804 31.9768 -12.461 4.53249 0.213006 0.662607 -23.1145 -6.58124 -3.47909 13.4635 -0.0 -0.0 0.0 0.0 0.0 
2698.63073439 687.868 -1512.4192285 5.47925155532 64.4025800587 -7.03331954207 -0.178451 0.307795 2.24601 -0.17566 0.164289 2.26103 -0.167606 -0.321283 2.24412 -0.174632 0.0370713 2.26669 -7.79938 19.281 -3.31882 -7.90446 38.3357 1.02847 -0.0 0.0 -0.0 0.795291 10.9059 2.64371 9.25245 -7.29279 45.8623 3.83383 -62.2141 2.31391 7.25106 0.198469 -0.904359 -2.23035 2.65565 -13.7979 -0.0 0.0 -0.0 10.1752 20.6254 -19.7492 -25.2722 24.5026 -62.8907 0.556701 15.4176 -0.0753566 -43.0563 3.28191 -4.27142 -4.74202 -28.1553 14.9305 0.0 0.0 0.0 -13.6868 -1.69777 11.7713 -2.88351 0.107938 0.429315 17.0535 27.0296 -2.50455 2.88714 -0.0 -0.0 -0.0 0.0 -0.0 27.7147 31.8916 -14.7524 6.62737 0.329064 0.962846 -23.847 -6.49459 -3.58947 13.237 -0.0 -0.0 0.0 0.0 0.0 
2676.47435584 681.504 -1514.30599884 5.34410032102 63.3093848186 -6.79738103825 -0.281922 0.31985 2.22631 -0.279182 0.177572 2.24214 -0.270595 -0.308273 2.22794 -0.27752 0.0473647 2.24866 -8.27666 19.2423 -2.97953 -8.48045 38.0817 1.54782 -0.0 0.0 -0.0 0.812534 10.677 2.65066 9.77676 -7.62048 45.8022 4.01712 -63.3012 2.47687 7.15452 0.196583 -0.89217 -2.21309 2.61661 -13.6988 -0.0 0.0 -0.0 10.4238 21.02 -20.2776 -25.4493 24.5616 -62.7962 0.495786 13.7988 -0.0599918 -43.053 3.28154 -4.2712 -4.7156 -28.0934 14.8243 0.0 0.0 0.0 -14.749 -1.61424 12.4083 -3.69717 0.134469 0.551369 17.2126 27.0055 -2.52601 2.83671 -0.0 -0.0 -0.0 0.0 -0.0 28.3302 31.8746 -15.3455 8.01772 0.412137 1.15973 -24.1526 -6.45816 -3.63546 13.0754 -0.0 -0.0 0.0 0.0 0.0 
2657.75169332 683.466 -1518.13438919 6.37092933225 62.4370996533 -8.00560740236 -0.461427 0.333511 2.25828 -0.45861 0.189173 2.27492 -0.449265 -0.311039 2.26149 -0.456399 0.0499275 2.28222 -8.20329 19.6439 -2.64846 -8.41076 38.6007 1.95005 -0.0 0.0 -0.0 0.907631 11.7194 2.91224 9.1219 -7.59038 46.2336 4.2383 -64.512 2.67552 7.09016 0.195313 -0.884046 -1.79881 2.71861 -10.8386 -0.0 0.0 -0.0 10.5595 20.5661 -20.618 -25.773 24.7036 -62.7502 0.51789 14.389 -0.0653746 -44.4458 3.4359 -4.36137 -4.62825 -27.1622 14.9755 0.0 0.0 0.0 -15.7075 -1.62143 13.0869 -5.22013 0.179457 0.78076 18.51 27.2506 -2.70706 2.97823 -0.0 -0.0 -0.0 0.0 -0.0 29.1278 32.384 -14.767 8.89021 0.466707 1.28225 -23.8077 -6.44288 -3.58367 9.8877 -0.0 -0.0 0.0 0.0 0.0 
